<svg width="96" height="77" viewBox="0 0 96 77" fill="none" xmlns="http://www.w3.org/2000/svg">
<path d="M38.4 0H86.4C91.695 0 96 4.31621 96 9.625V43.3125C96 48.6213 91.695 52.9375 86.4 52.9375H38.4C33.105 52.9375 28.8 48.6213 28.8 43.3125V9.625C28.8 4.31621 33.105 0 38.4 0ZM71.4 16.0467C70.725 15.0391 69.6 14.4375 68.4 14.4375C67.2 14.4375 66.075 15.0391 65.4 16.0467L57 28.6795L54.405 25.416C53.715 24.5588 52.68 24.0625 51.6 24.0625C50.52 24.0625 49.47 24.5588 48.795 25.416L39.195 37.4473C38.325 38.5301 38.16 40.0189 38.76 41.2672C39.36 42.5154 40.62 43.3125 42 43.3125H54H61.2H82.8C84.135 43.3125 85.35 42.5756 85.98 41.4025C86.61 40.2295 86.535 38.8008 85.8 37.7029L71.4 16.0467ZM50.4 14.4375C50.4 13.1611 49.8943 11.9371 48.9941 11.0345C48.0939 10.132 46.873 9.625 45.6 9.625C44.327 9.625 43.1061 10.132 42.2059 11.0345C41.3057 11.9371 40.8 13.1611 40.8 14.4375C40.8 15.7139 41.3057 16.9379 42.2059 17.8405C43.1061 18.743 44.327 19.25 45.6 19.25C46.873 19.25 48.0939 18.743 48.9941 17.8405C49.8943 16.9379 50.4 15.7139 50.4 14.4375ZM9.6 19.25H24V57.75V62.5625C24 65.2244 26.145 67.375 28.8 67.375H48C50.655 67.375 52.8 65.2244 52.8 62.5625V57.75H76.8V67.375C76.8 72.6838 72.495 77 67.2 77H9.6C4.305 77 0 72.6838 0 67.375V28.875C0 23.5662 4.305 19.25 9.6 19.25ZM10.8 28.875C9.48 28.875 8.4 29.9578 8.4 31.2812V33.6875C8.4 35.0109 9.48 36.0938 10.8 36.0938H13.2C14.52 36.0938 15.6 35.0109 15.6 33.6875V31.2812C15.6 29.9578 14.52 28.875 13.2 28.875H10.8ZM10.8 44.5156C9.48 44.5156 8.4 45.5984 8.4 46.9219V49.3281C8.4 50.6516 9.48 51.7344 10.8 51.7344H13.2C14.52 51.7344 15.6 50.6516 15.6 49.3281V46.9219C15.6 45.5984 14.52 44.5156 13.2 44.5156H10.8ZM10.8 60.1562C9.48 60.1562 8.4 61.2391 8.4 62.5625V64.9688C8.4 66.2922 9.48 67.375 10.8 67.375H13.2C14.52 67.375 15.6 66.2922 15.6 64.9688V62.5625C15.6 61.2391 14.52 60.1562 13.2 60.1562H10.8ZM61.2 62.5625V64.9688C61.2 66.2922 62.28 67.375 63.6 67.375H66C67.32 67.375 68.4 66.2922 68.4 64.9688V62.5625C68.4 61.2391 67.32 60.1562 66 60.1562H63.6C62.28 60.1562 61.2 61.2391 61.2 62.5625Z" fill="black"/>
</svg>
