<svg width="24" height="22" viewBox="0 0 24 22" fill="none" xmlns="http://www.w3.org/2000/svg">
<path d="M5.79836 17.6403C6.40289 17.1788 7.18551 17.0609 7.88845 17.326C9.13033 17.7974 10.5222 18.0674 12.003 18.0674C17.8469 18.0674 21.7506 14.1152 21.7506 10.212C21.7506 6.30886 17.8469 2.35662 12.003 2.35662C6.15921 2.35662 2.25551 6.30886 2.25551 10.212C2.25551 11.7831 2.83661 13.2952 3.92852 14.5914C4.33154 15.0676 4.52837 15.696 4.48151 16.3343C4.4159 17.2229 4.21439 18.0379 3.95195 18.7597C4.74863 18.3718 5.4094 17.9397 5.79836 17.6452V17.6403ZM0.999575 19.6336C1.08393 19.501 1.1636 19.3684 1.23858 19.2359C1.70721 18.4209 2.15241 17.3506 2.24145 16.1477C0.835554 14.4736 0.00607604 12.4262 0.00607604 10.212C0.00607604 4.57085 5.37659 0 12.003 0C18.6295 0 24 4.57085 24 10.212C24 15.8532 18.6295 20.424 12.003 20.424C10.2644 20.424 8.61483 20.1098 7.12459 19.5452C6.56691 19.9723 5.65777 20.5566 4.57992 21.0475C3.87228 21.3716 3.06624 21.6661 2.23207 21.838C2.19458 21.8478 2.15709 21.8527 2.1196 21.8625C1.91341 21.9018 1.71189 21.9362 1.50101 21.9558C1.49164 21.9558 1.47758 21.9607 1.46821 21.9607C1.2292 21.9853 0.990202 22 0.7512 22C0.44659 22 0.174783 21.8085 0.0576255 21.5139C-0.0595323 21.2194 0.00607603 20.8855 0.21696 20.6597C0.409099 20.4535 0.582493 20.2325 0.746514 19.9969C0.826181 19.884 0.901162 19.771 0.971457 19.6581L0.985516 19.6336H0.999575Z" fill="#375240"/>
</svg>
