<svg width="26" height="22" viewBox="0 0 26 22" fill="none" xmlns="http://www.w3.org/2000/svg">
<path d="M3.9 5.5C3.9 4.04131 4.44785 2.64236 5.42304 1.61091C6.39823 0.579463 7.72087 0 9.1 0C10.4791 0 11.8018 0.579463 12.777 1.61091C13.7521 2.64236 14.3 4.04131 14.3 5.5C14.3 6.95869 13.7521 8.35764 12.777 9.38909C11.8018 10.4205 10.4791 11 9.1 11C7.72087 11 6.39823 10.4205 5.42304 9.38909C4.44785 8.35764 3.9 6.95869 3.9 5.5ZM0 20.7238C0 16.4914 3.24187 13.0625 7.24344 13.0625H10.9566C14.9581 13.0625 18.2 16.4914 18.2 20.7238C18.2 21.4285 17.6597 22 16.9934 22H1.20656C0.540313 22 0 21.4285 0 20.7238ZM24.7528 22H19.1547C19.3741 21.5961 19.5041 21.1277 19.5041 20.625V20.2812C19.5041 17.673 18.4031 15.3313 16.6684 13.7586C16.7659 13.7543 16.8594 13.75 16.9569 13.75H19.4512C23.0669 13.75 26 16.8523 26 20.6809C26 21.4113 25.4394 22 24.7528 22ZM17.55 11C16.2906 11 15.1531 10.4586 14.3284 9.58633C15.1287 8.44336 15.6 7.02969 15.6 5.5C15.6 4.34844 15.3319 3.26133 14.8566 2.30742C15.6122 1.72305 16.5425 1.375 17.55 1.375C20.0647 1.375 22.1 3.52773 22.1 6.1875C22.1 8.84727 20.0647 11 17.55 11Z" fill="white"/>
</svg>
