<svg width="22" height="22" viewBox="0 0 22 22" fill="none" xmlns="http://www.w3.org/2000/svg">
<path d="M21.9925 10.9785C21.9925 11.752 21.4195 12.3578 20.7702 12.3578H19.548L19.5747 19.2414C19.5747 19.3574 19.5671 19.4734 19.5556 19.5895V20.2855C19.5556 21.2352 18.872 22.0043 18.0279 22.0043H17.4168C17.3747 22.0043 17.3327 22.0043 17.2907 22C17.2372 22.0043 17.1838 22.0043 17.1303 22.0043L15.889 22H14.9723C14.1282 22 13.4445 21.2309 13.4445 20.2813V19.25V16.5C13.4445 15.7395 12.8984 15.125 12.2223 15.125H9.77787C9.10182 15.125 8.55564 15.7395 8.55564 16.5V19.25V20.2813C8.55564 21.2309 7.87196 22 7.02786 22H6.1112H4.8928C4.8355 22 4.77821 21.9957 4.72092 21.9914C4.67509 21.9957 4.62925 22 4.58342 22H3.97231C3.12821 22 2.44453 21.2309 2.44453 20.2813V15.4688C2.44453 15.4301 2.44453 15.3871 2.44835 15.3484V12.3535H1.22613C0.538628 12.3535 0.00390625 11.752 0.00390625 10.9742C0.00390625 10.5875 0.11849 10.2438 0.385851 9.94297L10.1751 0.34375C10.4424 0.0429688 10.748 0 11.0154 0C11.2827 0 11.5883 0.0859375 11.8174 0.300781L21.5723 9.94727C21.8779 10.248 22.0306 10.5918 21.9925 10.9785Z" fill="white"/>
</svg>
