<svg width="24" height="22" viewBox="0 0 24 22" fill="none" xmlns="http://www.w3.org/2000/svg">
<path d="M10.5844 21.4013L10.4672 21.2856L2.25469 13.0999C0.815625 11.6661 0 9.65363 0 7.54559V7.37956C0 3.83765 2.34375 0.798858 5.5875 0.13475C7.43437 -0.247615 9.32344 0.210217 10.8281 1.34725C11.25 1.66924 11.6438 2.04154 12 2.46919C12.1969 2.2277 12.4078 2.00633 12.6328 1.80005C12.8062 1.63906 12.9844 1.48812 13.1719 1.34725C14.6766 0.210217 16.5656 -0.247615 18.4125 0.129719C21.6562 0.793827 24 3.83765 24 7.37956V7.54559C24 9.65363 23.1844 11.6661 21.7453 13.0999L13.5328 21.2856L13.4156 21.4013C13.0313 21.7837 12.525 22 12 22C11.475 22 10.9688 21.7887 10.5844 21.4013ZM11.2078 5.14072C11.1891 5.12562 11.175 5.1055 11.1609 5.08537L10.3266 4.07915L10.3219 4.07412C9.23906 2.77106 7.60312 2.17739 6.00937 2.50441C3.825 2.95218 2.25 4.99481 2.25 7.37956V7.54559C2.25 8.97946 2.80781 10.353 3.7875 11.329L12 19.5146L20.2125 11.329C21.1922 10.353 21.75 8.97946 21.75 7.54559V7.37956C21.75 4.99984 20.175 2.95218 17.9953 2.50441C16.4016 2.17739 14.7609 2.77609 13.6828 4.07412C13.6828 4.07412 13.6828 4.07412 13.6781 4.07915C13.6734 4.08418 13.6781 4.07915 13.6734 4.08418L12.8391 5.0904C12.825 5.11053 12.8062 5.12562 12.7922 5.14575C12.5812 5.37215 12.2953 5.49792 12 5.49792C11.7047 5.49792 11.4188 5.37215 11.2078 5.14575V5.14072Z" fill="#375240"/>
</svg>
