<svg width="18" height="18" viewBox="0 0 18 18" fill="none" xmlns="http://www.w3.org/2000/svg">
<g clip-path="url(#clip0_280_365)">
<path d="M14.625 8.3125C14.625 9.92617 14.1012 11.4168 13.2188 12.6262L17.6695 17.0805C18.109 17.5199 18.109 18.2336 17.6695 18.673C17.2301 19.1125 16.5164 19.1125 16.077 18.673L11.6262 14.2188C10.4168 15.1047 8.92617 15.625 7.3125 15.625C3.27305 15.625 0 12.352 0 8.3125C0 4.27305 3.27305 1 7.3125 1C11.352 1 14.625 4.27305 14.625 8.3125ZM7.3125 13.375C7.97732 13.375 8.63562 13.2441 9.24984 12.9896C9.86405 12.7352 10.4221 12.3623 10.8922 11.8922C11.3623 11.4221 11.7352 10.864 11.9896 10.2498C12.2441 9.63562 12.375 8.97732 12.375 8.3125C12.375 7.64768 12.2441 6.98938 11.9896 6.37516C11.7352 5.76095 11.3623 5.20287 10.8922 4.73277C10.4221 4.26268 9.86405 3.88977 9.24984 3.63536C8.63562 3.38095 7.97732 3.25 7.3125 3.25C6.64768 3.25 5.98938 3.38095 5.37516 3.63536C4.76095 3.88977 4.20287 4.26268 3.73277 4.73277C3.26268 5.20287 2.88977 5.76095 2.63536 6.37516C2.38095 6.98938 2.25 7.64768 2.25 8.3125C2.25 8.97732 2.38095 9.63562 2.63536 10.2498C2.88977 10.864 3.26268 11.4221 3.73277 11.8922C4.20287 12.3623 4.76095 12.7352 5.37516 12.9896C5.98938 13.2441 6.64768 13.375 7.3125 13.375Z" fill="black"/>
</g>
<defs>
<clipPath id="clip0_280_365">
<rect width="18" height="18" fill="white"/>
</clipPath>
</defs>
</svg>
