<svg width="40" height="39" viewBox="0 0 40 39" fill="none" xmlns="http://www.w3.org/2000/svg">
<path d="M18 28.75H22V21.0833H30V17.25H22V9.58333H18V17.25H10V21.0833H18V28.75ZM20 38.3333C17.2333 38.3333 14.6333 37.8382 12.2 36.8479C9.76667 35.8257 7.65 34.4521 5.85 32.7271C4.05 31.0021 2.61667 28.9736 1.55 26.6417C0.516667 24.3097 0 21.8181 0 19.1667C0 16.5153 0.516667 14.0236 1.55 11.6917C2.61667 9.35972 4.05 7.33125 5.85 5.60625C7.65 3.88125 9.76667 2.52361 12.2 1.53333C14.6333 0.511111 17.2333 0 20 0C22.7667 0 25.3667 0.511111 27.8 1.53333C30.2333 2.52361 32.35 3.88125 34.15 5.60625C35.95 7.33125 37.3667 9.35972 38.4 11.6917C39.4667 14.0236 40 16.5153 40 19.1667C40 21.8181 39.4667 24.3097 38.4 26.6417C37.3667 28.9736 35.95 31.0021 34.15 32.7271C32.35 34.4521 30.2333 35.8257 27.8 36.8479C25.3667 37.8382 22.7667 38.3333 20 38.3333ZM20 34.5C24.4667 34.5 28.25 33.0146 31.35 30.0437C34.45 27.0729 36 23.4472 36 19.1667C36 14.8861 34.45 11.2604 31.35 8.28958C28.25 5.31875 24.4667 3.83333 20 3.83333C15.5333 3.83333 11.75 5.31875 8.65 8.28958C5.55 11.2604 4 14.8861 4 19.1667C4 23.4472 5.55 27.0729 8.65 30.0437C11.75 33.0146 15.5333 34.5 20 34.5Z" fill="#1D1B20"/>
</svg>
