<svg width="26" height="22" viewBox="0 0 26 22" fill="none" xmlns="http://www.w3.org/2000/svg">
<path d="M5.85 0C6.71195 0 7.5386 0.362164 8.1481 1.00682C8.75759 1.65148 9.1 2.52582 9.1 3.4375C9.1 4.34918 8.75759 5.22352 8.1481 5.86818C7.5386 6.51284 6.71195 6.875 5.85 6.875C4.98805 6.875 4.1614 6.51284 3.5519 5.86818C2.94241 5.22352 2.6 4.34918 2.6 3.4375C2.6 2.52582 2.94241 1.65148 3.5519 1.00682C4.1614 0.362164 4.98805 0 5.85 0ZM20.8 0C21.662 0 22.4886 0.362164 23.0981 1.00682C23.7076 1.65148 24.05 2.52582 24.05 3.4375C24.05 4.34918 23.7076 5.22352 23.0981 5.86818C22.4886 6.51284 21.662 6.875 20.8 6.875C19.938 6.875 19.1114 6.51284 18.5019 5.86818C17.8924 5.22352 17.55 4.34918 17.55 3.4375C17.55 2.52582 17.8924 1.65148 18.5019 1.00682C19.1114 0.362164 19.938 0 20.8 0ZM0 12.8348C0 10.3039 1.94187 8.25 4.33469 8.25H6.06937C6.71531 8.25 7.32875 8.40039 7.88125 8.6668C7.82844 8.97617 7.80406 9.29844 7.80406 9.625C7.80406 11.2664 8.48656 12.7402 9.56312 13.75C9.555 13.75 9.54688 13.75 9.53469 13.75H0.865312C0.39 13.75 0 13.3375 0 12.8348ZM16.4653 13.75C16.4572 13.75 16.4491 13.75 16.4369 13.75C17.5175 12.7402 18.1959 11.2664 18.1959 9.625C18.1959 9.29844 18.1675 8.98047 18.1187 8.6668C18.6712 8.39609 19.2847 8.25 19.9306 8.25H21.6653C24.0581 8.25 26 10.3039 26 12.8348C26 13.3418 25.61 13.75 25.1347 13.75H16.4694H16.4653ZM9.1 9.625C9.1 8.53098 9.51089 7.48177 10.2423 6.70818C10.9737 5.9346 11.9657 5.5 13 5.5C14.0343 5.5 15.0263 5.9346 15.7577 6.70818C16.4891 7.48177 16.9 8.53098 16.9 9.625C16.9 10.719 16.4891 11.7682 15.7577 12.5418C15.0263 13.3154 14.0343 13.75 13 13.75C11.9657 13.75 10.9737 13.3154 10.2423 12.5418C9.51089 11.7682 9.1 10.719 9.1 9.625ZM5.2 20.8527C5.2 17.6902 7.62531 15.125 10.6153 15.125H15.3806C18.3747 15.125 20.8 17.6902 20.8 20.8527C20.8 21.4844 20.3166 22 19.7153 22H6.28062C5.68344 22 5.19594 21.4887 5.19594 20.8527H5.2Z" fill="#F2F2F2"/>
</svg>
