<svg width="56" height="73" viewBox="0 0 56 73" fill="none" xmlns="http://www.w3.org/2000/svg">
<path d="M37.9999 9.08598C37.9999 6.695 36.9464 4.40196 35.071 2.71129C33.1956 1.02061 30.6521 0.0708008 27.9999 0.0708008C25.3478 0.0708008 22.8042 1.02061 20.9289 2.71129C19.0535 4.40196 17.9999 6.695 17.9999 9.08598C17.9999 11.477 19.0535 13.77 20.9289 15.4607C22.8042 17.1513 25.3478 18.1012 27.9999 18.1012C30.6521 18.1012 33.1956 17.1513 35.071 15.4607C36.9464 13.77 37.9999 11.477 37.9999 9.08598ZM21.8906 23.9188C18.1874 22.7355 14.9374 20.4958 12.7031 17.4673L9.65619 13.34C8.12494 11.2693 5.03119 10.72 2.71869 12.1004C0.406189 13.4809 -0.203186 16.284 1.32806 18.3547L4.39056 22.4679C7.21869 26.2852 11.0781 29.2856 15.4999 31.2577V67.6846C15.4999 70.1779 17.7343 72.1922 20.4999 72.1922C23.2656 72.1922 25.4999 70.1779 25.4999 67.6846V54.1619H30.4999V67.6846C30.4999 70.1779 32.7343 72.1922 35.4999 72.1922C38.2656 72.1922 40.4999 70.1779 40.4999 67.6846V31.2859C45.0468 29.2856 48.9999 26.1866 51.8593 22.2425L54.7031 18.3124C56.2031 16.2277 55.5468 13.4386 53.2343 12.0723C50.9218 10.7059 47.8281 11.2975 46.3124 13.3964L43.4687 17.3123C40.0624 22.0171 34.2656 24.8625 28.0312 24.8625C26.0624 24.8625 24.1406 24.5808 22.3124 24.0455C22.1718 24.0033 22.0312 23.9469 21.8906 23.9188Z" fill="white"/>
</svg>
