<svg width="30" height="30" viewBox="0 0 30 30" fill="none" xmlns="http://www.w3.org/2000/svg">
<path d="M29.0569 9.76172C29.2444 10.2715 29.0862 10.8398 28.6819 11.2031L26.1448 13.5117C26.2092 13.998 26.2444 14.4961 26.2444 15C26.2444 15.5039 26.2092 16.002 26.1448 16.4883L28.6819 18.7969C29.0862 19.1602 29.2444 19.7285 29.0569 20.2383C28.7991 20.9355 28.4885 21.6035 28.1311 22.248L27.8557 22.7227C27.469 23.3672 27.0354 23.9766 26.5608 24.5508C26.2151 24.9727 25.6409 25.1133 25.1253 24.9492L21.8616 23.9121C21.0764 24.5156 20.2092 25.0195 19.2835 25.4004L18.551 28.7461C18.4339 29.2793 18.0237 29.7012 17.4846 29.7891C16.676 29.9238 15.844 29.9941 14.9944 29.9941C14.1448 29.9941 13.3128 29.9238 12.5042 29.7891C11.9651 29.7012 11.5549 29.2793 11.4378 28.7461L10.7053 25.4004C9.77956 25.0195 8.91237 24.5156 8.12721 23.9121L4.8694 24.9551C4.35377 25.1191 3.77956 24.9727 3.43385 24.5566C2.95924 23.9824 2.52565 23.373 2.13893 22.7285L1.86354 22.2539C1.50612 21.6094 1.19557 20.9414 0.937759 20.2441C0.750259 19.7344 0.908462 19.166 1.31276 18.8027L3.84987 16.4941C3.78542 16.002 3.75026 15.5039 3.75026 15C3.75026 14.4961 3.78542 13.998 3.84987 13.5117L1.31276 11.2031C0.908462 10.8398 0.750259 10.2715 0.937759 9.76172C1.19557 9.06445 1.50612 8.39648 1.86354 7.75195L2.13893 7.27734C2.52565 6.63281 2.95924 6.02344 3.43385 5.44922C3.77956 5.02734 4.35377 4.88672 4.8694 5.05078L8.13307 6.08789C8.91823 5.48438 9.78541 4.98047 10.7112 4.59961L11.4436 1.25391C11.5608 0.720703 11.971 0.298828 12.51 0.210938C13.3186 0.0703125 14.1506 0 15.0003 0C15.8499 0 16.6819 0.0703125 17.4905 0.205078C18.0296 0.292969 18.4397 0.714844 18.5569 1.24805L19.2893 4.59375C20.2151 4.97461 21.0823 5.47852 21.8674 6.08203L25.1311 5.04492C25.6467 4.88086 26.221 5.02734 26.5667 5.44336C27.0413 6.01758 27.4749 6.62695 27.8616 7.27148L28.137 7.74609C28.4944 8.39062 28.8049 9.05859 29.0628 9.75586L29.0569 9.76172ZM15.0003 19.6875C16.2435 19.6875 17.4357 19.1936 18.3148 18.3146C19.1939 17.4355 19.6878 16.2432 19.6878 15C19.6878 13.7568 19.1939 12.5645 18.3148 11.6854C17.4357 10.8064 16.2435 10.3125 15.0003 10.3125C13.7571 10.3125 12.5648 10.8064 11.6857 11.6854C10.8066 12.5645 10.3128 13.7568 10.3128 15C10.3128 16.2432 10.8066 17.4355 11.6857 18.3146C12.5648 19.1936 13.7571 19.6875 15.0003 19.6875Z" fill="#3E4A42"/>
</svg>
